Coordinates
version=1
nRows=29
nColumns=24
inDegrees=yes

Units are S.I. units (second, meters, Newtons, ...)
Angles are in degrees.

endheader
time	pelvis_tilt	pelvis_list	pelvis_rotation	pelvis_tx	pelvis_ty	pelvis_tz	hip_flexion_r	hip_adduction_r	hip_rotation_r	knee_angle_r	ankle_angle_r	subtalar_angle_r	mtp_angle_r	hip_flexion_l	hip_adduction_l	hip_rotation_l	knee_angle_l	ankle_angle_l	subtalar_angle_l	mtp_angle_l	lumbar_extension	lumbar_bending	lumbar_rotation
      3.33500000	    -11.56493469	     -2.49451635	      4.64518167	     -1.66494664	     -0.04945037	     -0.27478920	     40.27641684	      0.55569975	     -3.22412873	    -13.90327248	     -1.57067489	      6.58831746	     16.41560555	     -3.69229185	      0.08947990	      9.92842266	    -19.06595256	     22.18206444	     18.60617605	    -11.50343471	     10.15569182	     -0.98668779	    -16.59587959
      3.34000000	    -11.55416047	     -2.87260838	      4.81179796	     -1.65716993	     -0.05077554	     -0.27442108	     40.45759096	      0.81038613	     -3.78166626	    -14.96306664	     -2.24738824	      6.39837039	     16.28777812	     -3.70859004	     -0.47954300	      9.46566614	    -20.03422821	     22.25556608	     19.73030854	    -11.13229132	     10.27190365	     -0.52597452	    -16.77030322
      3.34500000	    -11.55358071	     -3.29254442	      4.91572051	     -1.64933432	     -0.05201489	     -0.27401737	     40.65058897	      1.13396365	     -4.32059565	    -16.02653416	     -3.12931907	      6.06783138	     16.33224423	     -3.69988060	     -1.10893242	      8.89387602	    -21.01378296	     22.20880384	     20.89292673	    -10.62325668	     10.40783434	      0.00426313	    -16.87117952
      3.35000000	    -11.56423373	     -3.72909011	      4.97470624	     -1.64150190	     -0.05316217	     -0.27357250	     40.86778727	      1.49644466	     -4.81845012	    -17.11873908	     -4.12465937	      5.61725601	     16.38830642	     -3.64884919	     -1.77905230	      8.19992803	    -22.02445235	     22.03894615	     22.14898493	     -9.95836570	     10.55150335	      0.56974409	    -16.92401515
      3.35500000	    -11.58397201	     -4.18124468	      4.98528155	     -1.63367148	     -0.05420945	     -0.27305935	     41.10544761	      1.90650038	     -5.25047923	    -18.24019956	     -5.15632195	      5.04495466	     16.35466559	     -3.55549461	     -2.49255132	      7.39581028	    -23.07293073	     21.72209668	     23.50001157	     -9.09955554	     10.69973455	      1.15991294	    -16.92723117
      3.36000000	    -11.61179994	     -4.64461589	      4.95856793	     -1.62584617	     -0.05514153	     -0.27249249	     41.35530948	      2.35641906	     -5.60201095	    -19.38566314	     -6.15488500	      4.38617795	     16.14759536	     -3.41914339	     -3.24694940	      6.49046249	    -24.15404130	     21.22560519	     24.93295162	     -8.00520989	     10.84901040	      1.76935378	    -16.90065257
      3.36500000	    -11.58622694	     -5.11777266	      4.78859180	     -1.61786990	     -0.05586324	     -0.27174738	     41.52046009	      2.95629176	     -5.65476470	    -20.52331835	     -7.04607617	      3.53534359	     15.48156350	     -3.40203316	     -4.02653956	      5.50801210	    -25.06482471	     20.13087117	     26.17399343	     -5.52671300	     10.95050942	      2.43188884	    -16.68295239
      3.37000000	    -11.60843690	     -5.56499401	      4.78813527	     -1.61006258	     -0.05647199	     -0.27120957	     41.75886032	      3.37783887	     -5.98035419	    -21.74490065	     -7.62021784	      3.07026804	     14.62225594	     -3.20741225	     -4.80954175	      4.64190660	    -26.10781323	     18.89339620	     27.62335717	     -2.97513852	     11.08106832	      3.01741220	    -16.68180817
      3.37500000	    -11.66548493	     -6.05155903	      4.64293690	     -1.60217298	     -0.05710063	     -0.27043039	     42.00291407	      3.97408338	     -6.02624068	    -22.88816682	     -8.27136077	      2.25804271	     13.92158624	     -2.93999121	     -5.67213457	      3.54804969	    -27.32192398	     17.89600184	     29.25180611	     -1.52924648	     11.25428795	      3.66387952	    -16.52448191
      3.38000000	    -11.61487317	     -6.46018438	      4.51437201	     -1.59423216	     -0.05744598	     -0.26969684	     42.11432064	      4.49047741	     -6.09240901	    -24.09685276	     -8.35797538	      1.94947105	     12.72843389	     -2.80505321	     -6.47378336	      2.50237277	    -28.35840381	     16.13215652	     30.74578258	      1.62583355	     11.30234395	      4.23303428	    -16.39038155
      3.38500000	    -11.65034310	     -6.94057004	      4.38227119	     -1.58633587	     -0.05783730	     -0.26886205	     42.26278355	      5.10433885	     -6.08987699	    -25.14518069	     -8.67802783	      1.19249410	     11.98689948	     -2.47057397	     -7.38279105	      1.48453755	    -29.64459499	     14.62510567	     32.42686543	      3.55636951	     11.44480582	      4.86033067	    -16.25125592
      3.39000000	    -11.57028613	     -7.30349143	      4.21475634	     -1.57834647	     -0.05798982	     -0.26804555	     42.25772707	      5.63201416	     -6.05277863	    -26.24021582	     -8.39548622	      1.06107838	     11.05396906	     -2.30563465	     -8.16995920	      0.46754702	    -30.72859109	     12.36624837	     33.86210662	      6.99168096	     11.45524710	      5.37649282	    -16.10233428
      3.39500000	    -11.52448138	     -7.69904294	      4.04840710	     -1.57039201	     -0.05811964	     -0.26716699	     42.22775944	      6.20703666	     -5.99366337	    -27.19426198	     -8.18575650	      0.75759866	     10.48781376	     -2.03333443	     -9.00442395	     -0.44712860	    -31.94754950	     10.14300581	     35.33632619	      9.71240528	     11.50297773	      5.91357132	    -15.95174969
      3.40000000	    -11.47480721	     -8.07943152	      3.87905038	     -1.56247695	     -0.05818303	     -0.26624858	     42.13966556	      6.77944455	     -5.92621594	    -28.05597553	     -7.84822211	      0.54244470	     10.12226255	     -1.72086641	     -9.82255102	     -1.25741443	    -33.20512169	      7.72454127	     36.71008070	     12.33655817	     11.53210535	      6.42597335	    -15.79596774
      3.40500000	    -11.44958576	     -8.47538897	      3.72034902	     -1.55454957	     -0.05819325	     -0.26524298	     42.00782903	      7.37898902	     -5.86604374	    -28.78372178	     -7.51046917	      0.21756588	      9.95935929	     -1.33531304	    -10.66029328	     -1.92520654	    -34.51986291	      5.23208956	     38.05845222	     14.46286792	     11.60243248	      6.92619066	    -15.68614227
      3.41000000	    -11.39822655	     -8.82521688	      3.53518629	     -1.54676124	     -0.05814837	     -0.26428349	     41.81179236	      7.93322417	     -5.82464688	    -29.45685803	     -6.97895031	      0.21243871	     10.01589512	     -0.93788641	    -11.41655124	     -2.49565586	    -35.84566904	      2.50637423	     39.12860864	     16.70681804	     11.60813145	      7.39688010	    -15.51419078
      3.41500000	    -11.38321551	     -9.21315846	      3.35114742	     -1.53901079	     -0.05809372	     -0.26331770	     41.59243711	      8.52154495	     -5.80175068	    -30.00485816	     -6.45269097	      0.19543030	     10.23507403	     -0.44641742	    -12.18825182	     -2.92533450	    -37.24932366	     -0.17002982	     39.98419781	     18.30206192	     11.66251316	      7.89975453	    -15.36544855
      3.42000000	    -11.36165350	     -9.52485690	      3.15130642	     -1.53135325	     -0.05795190	     -0.26231945	     41.31952560	      9.04468121	     -5.78334318	    -30.48426362	     -5.83467096	      0.29642383	     10.62372081	      0.05893182	    -12.84307811	     -3.22284093	    -38.63372636	     -2.93510152	     40.65869695	     19.62263593	     11.68869238	      8.31557951	    -15.17678466
      3.42500000	    -11.37489289	     -9.83554089	      2.94040022	     -1.52374505	     -0.05780421	     -0.26128945	     41.03142718	      9.56662970	     -5.79449062	    -30.86949679	     -5.17812862	      0.42558773	     11.09934719	      0.64712344	    -13.46980125	     -3.41281151	    -40.08374973	     -5.53616485	     41.17761698	     20.19859833	     11.75400331	      8.72311472	    -14.97426738
      3.43000000	    -11.37873983	    -10.16620635	      2.70226280	     -1.51632042	     -0.05762946	     -0.26029866	     40.69168983	     10.12811866	     -5.73807427	    -31.17097469	     -4.49138731	      0.62121844	     11.48675248	      1.29763760	    -14.08166648	     -3.57177992	    -41.66777655	     -7.83968811	     41.26360565	     19.93691916	     11.77724917	      9.16563513	    -14.75387154
      3.43500000	    -11.46487113	    -10.48050731	      2.52229677	     -1.50898244	     -0.05738472	     -0.25929623	     40.38725306	     10.61655067	     -5.79578985	    -31.34292646	     -3.97168465	      0.74308623	     12.25398576	      2.08572399	    -14.64374361	     -3.55406150	    -43.12366867	    -10.43958257	     41.20072057	     20.58605925	     11.89826886	      9.55317665	    -14.58246010
      3.44000000	    -11.49404623	    -10.80657552	      2.27767274	     -1.50171427	     -0.05707505	     -0.25823843	     39.98598039	     11.16786589	     -5.80762936	    -31.47155331	     -3.33247439	      0.95875231	     12.66597973	      2.84020645	    -15.21392815	     -3.60595167	    -44.69382090	    -12.53435029	     40.91884529	     20.13117881	     11.93708966	      9.97636987	    -14.30749009
      3.44500000	    -11.53636495	    -11.12661611	      2.05742510	     -1.49448624	     -0.05670829	     -0.25720567	     39.54707735	     11.70580146	     -5.79803956	    -31.51154535	     -2.68341055	      1.14134716	     13.05496533	      3.65662851	    -15.75930775	     -3.62566937	    -46.26392406	    -14.44580840	     40.34486017	     19.65084227	     11.99852676	     10.37637691	    -14.09000116
      3.45000000	    -11.60765587	    -11.44065335	      1.84997266	     -1.48735676	     -0.05629452	     -0.25621937	     39.10694203	     12.21185773	     -5.83668064	    -31.48144931	     -2.07736198	      1.37154758	     13.47930362	      4.55690655	    -16.27355912	     -3.59828844	    -47.84171839	    -16.11492571	     39.52382046	     19.17164661	     12.08373136	     10.76676677	    -13.85555816
      3.45500000	    -11.68781796	    -11.73301508	      1.65551890	     -1.48028589	     -0.05580441	     -0.25526324	     38.63946993	     12.68591180	     -5.87949972	    -31.38489907	     -1.49996641	      1.61311909	     13.91746719	      5.50721086	    -16.74560406	     -3.55076744	    -49.41119895	    -17.49941840	     38.47601117	     18.69442918	     12.17922165	     11.12961505	    -13.62745418
      3.46000000	    -11.89552523	    -11.92409998	      1.51771272	     -1.47333715	     -0.05534640	     -0.25446070	     38.30199528	     12.97244814	     -6.04055001	    -31.26580873	     -0.97653673	      1.96862156	     14.77594875	      6.67743507	    -17.04440929	     -3.35438528	    -51.00823072	    -18.51015018	     37.20488907	     17.97411184	     12.41940602	     11.36631877	    -13.46446180
      3.46500000	    -11.90624043	    -12.22566328	      1.30951433	     -1.46629120	     -0.05462301	     -0.25347235	     37.66611539	     13.49489271	     -5.98644790	    -31.00113403	     -0.49064539	      2.14616590	     15.07455536	      7.58420415	    -17.52614159	     -3.37652457	    -52.51636153	    -19.23103970	     35.84278800	     17.66766430	     12.43718110	     11.73490629	    -13.18529618
      3.47000000	    -12.04714325	    -12.38305201	      1.18688990	     -1.45942546	     -0.05394134	     -0.25277237	     37.18823574	     13.75620552	     -6.08347310	    -30.76490914	     -0.00886334	      2.48176831	     15.78636036	      8.72886279	    -17.75209997	     -3.19726129	    -54.05510261	    -19.53697430	     34.21101781	     17.01852035	     12.59569020	     11.94806757	    -12.99228725
      3.47500000	    -12.04255083	    -12.64481406	      1.00714068	     -1.45240574	     -0.05304611	     -0.25188287	     36.47877921	     14.21820720	     -6.04632218	    -30.40624995	      0.42401558	      2.65698034	     16.02975923	      9.66742855	    -18.16422258	     -3.21220467	    -55.47884192	    -19.66460685	     32.56796828	     16.85811652	     12.60673376	     12.27829477	    -12.71538768
